<svg width="50" height="50" viewBox="0 0 50 50" fill="none" xmlns="http://www.w3.org/2000/svg">
<path d="M14.5833 41.7188V22.9167H17.9167C18.1597 22.9167 18.4028 22.9427 18.6458 22.9948C18.8889 23.0469 19.1319 23.1077 19.375 23.1771L33.8021 28.5417C34.2882 28.7153 34.6788 29.0278 34.974 29.4792C35.2691 29.9306 35.4167 30.3993 35.4167 30.8854C35.4167 31.6146 35.1649 32.2049 34.6615 32.6563C34.158 33.1077 33.5764 33.3334 32.9167 33.3334H27.4479C27.2743 33.3334 27.1441 33.3247 27.0573 33.3073C26.9705 33.29 26.8576 33.2465 26.7187 33.1771L23.3854 31.875L22.7083 33.9063L26.7187 35.3125C26.7882 35.3472 26.8924 35.3733 27.0312 35.3906C27.1701 35.408 27.2917 35.4167 27.3958 35.4167H41.6667C42.7778 35.4167 43.75 35.816 44.5833 36.6146C45.4167 37.4132 45.8333 38.4028 45.8333 39.5834L29.2187 45.8334L14.5833 41.7188ZM2.08333 45.8334V22.9167H10.4167V45.8334H2.08333ZM33.3333 27.0834L24.6875 18.6459C23.6111 17.6042 22.6996 16.4497 21.9531 15.1823C21.2066 13.915 20.8333 12.5347 20.8333 11.0417C20.8333 9.13197 21.5017 7.5087 22.8385 6.1719C24.1753 4.83509 25.7986 4.16669 27.7083 4.16669C28.8194 4.16669 29.8611 4.40106 30.8333 4.86981C31.8055 5.33856 32.6389 5.97224 33.3333 6.77085C34.0278 5.97224 34.8611 5.33856 35.8333 4.86981C36.8055 4.40106 37.8472 4.16669 38.9583 4.16669C40.868 4.16669 42.4913 4.83509 43.8281 6.1719C45.1649 7.5087 45.8333 9.13197 45.8333 11.0417C45.8333 12.5347 45.4687 13.915 44.7396 15.1823C44.0104 16.4497 43.1076 17.6042 42.0312 18.6459L33.3333 27.0834Z" fill="url(#paint0_linear_166_20)"/>
<defs>
<linearGradient id="paint0_linear_166_20" x1="23.9583" y1="4.16669" x2="23.9583" y2="45.8334" gradientUnits="userSpaceOnUse">
<stop stop-color="#3BD94B"/>
<stop offset="1" stop-color="#0D9F1B"/>
</linearGradient>
</defs>
</svg>
