<svg width="205" height="50" viewBox="0 0 205 50" fill="none" xmlns="http://www.w3.org/2000/svg">
<path d="M2.57471 46.6667V11.5667H12.1438C14.4896 11.5667 16.5207 11.8267 18.2371 12.3467C19.9536 12.8667 21.2838 13.8056 22.2278 15.1633C23.2005 16.4922 23.6868 18.3844 23.6868 20.84C23.6868 22.2844 23.5723 23.57 23.3435 24.6967C23.1147 25.8233 22.6855 26.8056 22.0562 27.6433C21.4554 28.4522 20.5829 29.1311 19.4386 29.68L24.2017 46.6667H16.2632L12.4442 30.9367H10.2557V46.6667H2.57471ZM10.2557 26.4733H12.4013C13.4883 26.4733 14.3322 26.2856 14.933 25.91C15.5337 25.5056 15.9486 24.9422 16.1774 24.22C16.4349 23.4689 16.5636 22.5733 16.5636 21.5333C16.5636 20.0311 16.2918 18.8611 15.7483 18.0233C15.2048 17.1856 14.2035 16.7667 12.7445 16.7667H10.2557V26.4733ZM27.0171 46.6667V11.5667H42.6365V16.8533H34.698V25.5633H40.7484V30.9367H34.698V41.4233H42.7223V46.6667H27.0171ZM54.1481 47.1867C51.9739 47.1867 50.1574 46.7967 48.6985 46.0167C47.2395 45.2367 46.138 44.0377 45.3943 42.42C44.6503 40.7733 44.2357 38.65 44.1499 36.05L50.7153 35.0533C50.7436 36.5557 50.8724 37.769 51.1015 38.6933C51.3589 39.6177 51.7022 40.2823 52.1313 40.6867C52.5888 41.091 53.1325 41.2933 53.7619 41.2933C54.5627 41.2933 55.0776 41.019 55.3067 40.47C55.5642 39.921 55.6929 39.3433 55.6929 38.7367C55.6929 37.2923 55.3496 36.079 54.663 35.0967C53.9765 34.0857 53.0466 33.0744 51.8739 32.0633L48.8701 29.42C47.5541 28.2933 46.4384 27.0222 45.5231 25.6067C44.6361 24.1622 44.1928 22.3856 44.1928 20.2767C44.1928 17.3011 45.0652 15.0333 46.8104 13.4733C48.5552 11.8844 50.9298 11.09 53.9336 11.09C55.7929 11.09 57.2806 11.4078 58.3963 12.0433C59.5403 12.6789 60.3986 13.5167 60.9709 14.5567C61.5717 15.5678 61.9721 16.6511 62.1724 17.8067C62.4012 18.9333 62.5299 20.0167 62.5586 21.0567L55.9504 21.88C55.9216 20.84 55.85 19.9444 55.7358 19.1933C55.65 18.4133 55.4496 17.8211 55.1351 17.4167C54.8202 16.9833 54.334 16.7667 53.6761 16.7667C52.9608 16.7667 52.4317 17.07 52.0884 17.6767C51.7735 18.2833 51.6164 18.89 51.6164 19.4967C51.6164 20.7967 51.9168 21.8656 52.5175 22.7033C53.1467 23.5122 53.962 24.3644 54.9634 25.26L57.8384 27.8167C59.3545 29.1167 60.6276 30.59 61.6575 32.2367C62.7157 33.8833 63.2452 35.92 63.2452 38.3467C63.2452 39.9933 62.8732 41.4957 62.1295 42.8533C61.3855 44.1823 60.3273 45.2367 58.9541 46.0167C57.6094 46.7967 56.0075 47.1867 54.1481 47.1867ZM65.7198 46.6667V11.5667H73.4008V46.6667H65.7198ZM77.2965 46.6667V11.5667H84.9775V41.4233H92.9589V46.6667H77.2965ZM95.0767 46.6667V11.5667H102.758V46.6667H95.0767ZM106.653 46.6667V11.5667H122.273V16.8533H114.334V25.5633H120.385V30.9367H114.334V41.4233H122.359V46.6667H106.653ZM107.554 8.48999L111.631 0.169983H117.338L121.543 8.48999H116.394L114.506 3.33332L112.661 8.48999H107.554ZM124.558 46.6667V11.5667H129.965L137.088 28.4667V11.5667H143.439V46.6667H138.247L131.124 28.4667V46.6667H124.558ZM157.28 47.1867C154.648 47.1867 152.56 46.71 151.015 45.7567C149.499 44.7743 148.426 43.4167 147.797 41.6833C147.167 39.921 146.853 37.8557 146.853 35.4867V22.8333C146.853 20.4067 147.167 18.3267 147.797 16.5933C148.426 14.8311 149.499 13.4733 151.015 12.52C152.56 11.5667 154.648 11.09 157.28 11.09C159.855 11.09 161.857 11.5233 163.288 12.39C164.747 13.2278 165.776 14.4122 166.377 15.9433C166.978 17.4744 167.278 19.2367 167.278 21.23V24.2633H159.769V20.7533C159.769 20.06 159.726 19.3956 159.64 18.76C159.583 18.1244 159.383 17.6044 159.039 17.2C158.696 16.7667 158.11 16.55 157.28 16.55C156.479 16.55 155.878 16.7667 155.478 17.2C155.106 17.6333 154.863 18.1822 154.748 18.8467C154.663 19.4822 154.62 20.1611 154.62 20.8833V37.3933C154.62 38.1733 154.677 38.8957 154.791 39.56C154.934 40.1957 155.192 40.7157 155.564 41.12C155.964 41.4957 156.536 41.6833 157.28 41.6833C158.081 41.6833 158.653 41.481 158.997 41.0767C159.34 40.6433 159.554 40.0943 159.64 39.43C159.726 38.7657 159.769 38.0867 159.769 37.3933V33.71H167.278V36.7433C167.278 38.7367 166.978 40.5277 166.377 42.1167C165.805 43.6767 164.789 44.919 163.331 45.8433C161.9 46.739 159.883 47.1867 157.28 47.1867ZM170.26 46.6667V11.5667H177.941V46.6667H170.26ZM180.162 46.6667L186.728 11.5667H195.482L201.961 46.6667H194.881L193.722 39.2567H188.616L187.414 46.6667H180.162ZM189.302 34.62H192.993L191.148 20.9267L189.302 34.62Z" fill="#033C08"/>
</svg>
