<svg width="62" height="15" viewBox="0 0 62 15" fill="none" xmlns="http://www.w3.org/2000/svg">
<path d="M0.78 14V3.47H3.679C4.38967 3.47 5.005 3.548 5.525 3.704C6.045 3.86 6.448 4.14167 6.734 4.549C7.02867 4.94767 7.176 5.51533 7.176 6.252C7.176 6.68533 7.14133 7.071 7.072 7.409C7.00267 7.747 6.87267 8.04167 6.682 8.293C6.5 8.53567 6.23567 8.73933 5.889 8.904L7.332 14H4.927L3.77 9.281H3.107V14H0.78ZM3.107 7.942H3.757C4.08633 7.942 4.342 7.88567 4.524 7.773C4.706 7.65167 4.83167 7.48267 4.901 7.266C4.979 7.04067 5.018 6.772 5.018 6.46C5.018 6.00933 4.93567 5.65833 4.771 5.407C4.60633 5.15567 4.303 5.03 3.861 5.03H3.107V7.942ZM8.18492 14V3.47H12.9169V5.056H10.5119V7.669H12.3449V9.281H10.5119V12.427H12.9429V14H8.18492ZM16.4044 14.156C15.7457 14.156 15.1954 14.039 14.7534 13.805C14.3114 13.571 13.9777 13.2113 13.7524 12.726C13.527 12.232 13.4014 11.595 13.3754 10.815L15.3644 10.516C15.373 10.9667 15.412 11.3307 15.4814 11.608C15.5594 11.8853 15.6634 12.0847 15.7934 12.206C15.932 12.3273 16.0967 12.388 16.2874 12.388C16.53 12.388 16.686 12.3057 16.7554 12.141C16.8334 11.9763 16.8724 11.803 16.8724 11.621C16.8724 11.1877 16.7684 10.8237 16.5604 10.529C16.3524 10.2257 16.0707 9.92233 15.7154 9.619L14.8054 8.826C14.4067 8.488 14.0687 8.10667 13.7914 7.682C13.5227 7.24867 13.3884 6.71567 13.3884 6.083C13.3884 5.19033 13.6527 4.51 14.1814 4.042C14.71 3.56533 15.4294 3.327 16.3394 3.327C16.9027 3.327 17.3534 3.42233 17.6914 3.613C18.038 3.80367 18.298 4.055 18.4714 4.367C18.6534 4.67033 18.7747 4.99533 18.8354 5.342C18.9047 5.68 18.9437 6.005 18.9524 6.317L16.9504 6.564C16.9417 6.252 16.92 5.98333 16.8854 5.758C16.8594 5.524 16.7987 5.34633 16.7034 5.225C16.608 5.095 16.4607 5.03 16.2614 5.03C16.0447 5.03 15.8844 5.121 15.7804 5.303C15.685 5.485 15.6374 5.667 15.6374 5.849C15.6374 6.239 15.7284 6.55967 15.9104 6.811C16.101 7.05367 16.348 7.30933 16.6514 7.578L17.5224 8.345C17.9817 8.735 18.3674 9.177 18.6794 9.671C19 10.165 19.1604 10.776 19.1604 11.504C19.1604 11.998 19.0477 12.4487 18.8224 12.856C18.597 13.2547 18.2764 13.571 17.8604 13.805C17.453 14.039 16.9677 14.156 16.4044 14.156ZM19.9101 14V3.47H22.2371V14H19.9101ZM23.4173 14V3.47H25.7443V12.427H28.1623V14H23.4173ZM28.8039 14V3.47H31.1309V14H28.8039ZM32.3111 14V3.47H37.0431V5.056H34.6381V7.669H36.4711V9.281H34.6381V12.427H37.0691V14H32.3111ZM32.5841 2.547L33.8191 0.050999H35.5481L36.8221 2.547H35.2621L34.6901 1L34.1311 2.547H32.5841ZM37.7355 14V3.47H39.3735L41.5315 8.54V3.47H43.4555V14H41.8825L39.7245 8.54V14H37.7355ZM47.6487 14.156C46.8513 14.156 46.2187 14.013 45.7507 13.727C45.2913 13.4323 44.9663 13.025 44.7757 12.505C44.585 11.9763 44.4897 11.3567 44.4897 10.646V6.85C44.4897 6.122 44.585 5.498 44.7757 4.978C44.9663 4.44933 45.2913 4.042 45.7507 3.756C46.2187 3.47 46.8513 3.327 47.6487 3.327C48.4287 3.327 49.0353 3.457 49.4687 3.717C49.9107 3.96833 50.2227 4.32367 50.4047 4.783C50.5867 5.24233 50.6777 5.771 50.6777 6.369V7.279H48.4027V6.226C48.4027 6.018 48.3897 5.81867 48.3637 5.628C48.3463 5.43733 48.2857 5.28133 48.1817 5.16C48.0777 5.03 47.9 4.965 47.6487 4.965C47.406 4.965 47.224 5.03 47.1027 5.16C46.99 5.29 46.9163 5.45467 46.8817 5.654C46.8557 5.84467 46.8427 6.04833 46.8427 6.265V11.218C46.8427 11.452 46.86 11.6687 46.8947 11.868C46.938 12.0587 47.016 12.2147 47.1287 12.336C47.25 12.4487 47.4233 12.505 47.6487 12.505C47.8913 12.505 48.0647 12.4443 48.1687 12.323C48.2727 12.193 48.3377 12.0283 48.3637 11.829C48.3897 11.6297 48.4027 11.426 48.4027 11.218V10.113H50.6777V11.023C50.6777 11.621 50.5867 12.1583 50.4047 12.635C50.2313 13.103 49.9237 13.4757 49.4817 13.753C49.0483 14.0217 48.4373 14.156 47.6487 14.156ZM51.5809 14V3.47H53.9079V14H51.5809ZM54.581 14L56.57 3.47H59.222L61.185 14H59.04L58.689 11.777H57.142L56.778 14H54.581ZM57.35 10.386H58.468L57.909 6.278L57.35 10.386Z" fill="black"/>
</svg>
